# xmcd
#
# Track frame offsets: 
#        150
#        9800
#        19019
#        29740
#        40536
#        52570
#        63495
#        74306
#        86695
#        98386
#
# Disc length: 1480 seconds
#
# Revision: 0
# Processed by: cddbd v1.5.2PL0 Copyright (c) Steve Scherf et al.
# Submitted via: ExactAudioCopy v0.95b3
#
DISCID=6805c60a
DTITLE=Brenda Lee  - 10 Golden Years
DYEAR=1900
DGENRE=
TTITLE0=Jambalaya
TTITLE1=Dynamite
TTITLE2=Bill Bayley Won't You Please Come Home
TTITLE3=Sweet Nothings
TTITLE4=I'm Sorry
TTITLE5=Fool Number One
TTITLE6=Dum Dum
TTITLE7=All Alone Am I
TTITLE8=As Usual
TTITLE9=Too Many Rivers
EXTD=
EXTT0=
EXTT1=
EXTT2=
EXTT3=
EXTT4=
EXTT5=
EXTT6=
EXTT7=
EXTT8=
EXTT9=
PLAYORDER=
